<svg width="18" height="18" viewBox="0 0 18 18" fill="none">
<path d="M17.7188 9.25C17.7188 7.70312 17.2969 6.22656 16.5234 4.89062C15.75 3.55469 14.6953 2.5 13.3594 1.72656C12.0234 0.953125 10.5469 0.53125 9 0.53125C7.41797 0.53125 5.97656 0.953125 4.64062 1.72656C3.30469 2.5 2.21484 3.55469 1.44141 4.89062C0.667969 6.22656 0.28125 7.70312 0.28125 9.25C0.28125 10.832 0.667969 12.2734 1.44141 13.6094C2.21484 14.9453 3.30469 16.0352 4.64062 16.8086C5.97656 17.582 7.41797 17.9688 9 17.9688C10.5469 17.9688 12.0234 17.582 13.3594 16.8086C14.6953 16.0352 15.75 14.9453 16.5234 13.6094C17.2969 12.2734 17.7188 10.832 17.7188 9.25ZM7.98047 13.8555C7.875 13.9961 7.73438 14.0312 7.59375 14.0312C7.41797 14.0312 7.27734 13.9961 7.20703 13.8555L3.55078 10.1992C3.41016 10.1289 3.375 9.98828 3.375 9.8125C3.375 9.67188 3.41016 9.53125 3.55078 9.42578L4.32422 8.61719C4.42969 8.51172 4.57031 8.44141 4.71094 8.44141C4.85156 8.44141 4.99219 8.51172 5.13281 8.61719L7.59375 11.0781L12.8672 5.80469C12.9727 5.69922 13.1133 5.62891 13.2539 5.62891C13.3945 5.62891 13.5352 5.69922 13.6758 5.80469L14.4492 6.61328C14.5547 6.71875 14.625 6.85938 14.625 7C14.625 7.17578 14.5547 7.31641 14.4492 7.38672L7.98047 13.8555Z" fill="#383E4E"/>
</svg>
